<?xml version="1.0" encoding="UTF-8"?>
<svg width="20px" height="21px" viewBox="0 0 20 21" version="1.1" xmlns="http://www.w3.org/2000/svg" xmlns:xlink="http://www.w3.org/1999/xlink">
    <!-- Generator: sketchtool 64 (101010) - https://sketch.com -->
    <title>661F24CF-72F2-4552-B653-D3089162AC9E</title>
    <desc>Created with sketchtool.</desc>
    <g id="Page-1" stroke="none" stroke-width="1" fill="none" fill-rule="evenodd">
        <g id="/works" transform="translate(-1268.000000, -595.000000)" fill="#FF576F" fill-rule="nonzero">
            <g id="section" transform="translate(136.000000, 346.000000)">
                <g id="card-copy-3" transform="translate(600.000000, 191.000000)">
                    <g id="add-more" transform="translate(532.000000, 58.611842)">
                        <g id="more">
                            <path d="M10,19.8684211 C4.48577883,19.8684211 0,15.4121539 0,9.93421053 C0,4.45626713 4.48577883,0 10,0 C15.5142212,0 20,4.45626713 20,9.93421053 C20,15.4121539 15.5142212,19.8684211 10,19.8684211 Z M10,1.24177632 C5.17501832,1.24177632 1.25,5.14097215 1.25,9.93421053 C1.25,14.7274489 5.17501832,18.6266447 10,18.6266447 C14.8249817,18.6266447 18.75,14.7274489 18.75,9.93421053 C18.75,5.14097215 14.8249817,1.24177632 10,1.24177632 Z" id="Shape"></path>
                            <path d="M14.375,10.5550987 L5.625,10.5550987 C5.27999879,10.5550987 5,10.276942 5,9.93421053 C5,9.59147906 5.27999879,9.31332237 5.625,9.31332237 L14.375,9.31332237 C14.7200012,9.31332237 15,9.59147906 15,9.93421053 C15,10.276942 14.7200012,10.5550987 14.375,10.5550987 Z" id="Path"></path>
                            <path d="M10,14.9013158 C9.65499879,14.9013158 9.375,14.6231591 9.375,14.2804276 L9.375,5.58799342 C9.375,5.24526195 9.65499879,4.96710526 10,4.96710526 C10.3450012,4.96710526 10.625,5.24526195 10.625,5.58799342 L10.625,14.2804276 C10.625,14.6231591 10.3450012,14.9013158 10,14.9013158 Z" id="Path"></path>
                        </g>
                    </g>
                </g>
            </g>
        </g>
    </g>
</svg>