<?xml version="1.0" encoding="UTF-8"?>
<svg width="20px" height="21px" viewBox="0 0 20 21" version="1.1" xmlns="http://www.w3.org/2000/svg" xmlns:xlink="http://www.w3.org/1999/xlink">
    <!-- Generator: sketchtool 64 (101010) - https://sketch.com -->
    <title>8CFDFFFC-98BD-4FCF-A800-AE1582551A79</title>
    <desc>Created with sketchtool.</desc>
    <g id="Page-1" stroke="none" stroke-width="1" fill="none" fill-rule="evenodd">
        <g id="/works" transform="translate(-1240.000000, -595.000000)" fill="#FF576F" fill-rule="nonzero">
            <g id="section" transform="translate(136.000000, 346.000000)">
                <g id="card-copy-3" transform="translate(600.000000, 191.000000)">
                    <g id="heart" transform="translate(504.000000, 58.611842)">
                        <path d="M10,13.9699836 C9.86986996,13.9699836 9.74441231,13.9231928 9.64664042,13.8381942 C9.27738071,13.5177189 8.9213711,13.2165553 8.60727369,12.9509 L8.60566975,12.9495156 C7.68478691,12.1706155 6.88957096,11.4979635 6.33627415,10.8353481 C5.71777285,10.0945866 5.4296875,9.39224053 5.4296875,8.62496883 C5.4296875,7.8795005 5.68722784,7.19175926 6.15481735,6.6883432 C6.62798584,6.17897446 7.27724134,5.8984375 7.9831934,5.8984375 C8.51082684,5.8984375 8.99403751,6.06400484 9.41936611,6.39050196 C9.63401794,6.5553079 9.8285854,6.75700658 10,6.99227555 C10.1714844,6.75700658 10.3659821,6.5553079 10.5807036,6.39050196 C11.0060322,6.06400484 11.4892429,5.8984375 12.0168763,5.8984375 C12.7227587,5.8984375 13.3720839,6.17897446 13.8452524,6.6883432 C14.3128419,7.19175926 14.5703125,7.8795005 14.5703125,8.62496883 C14.5703125,9.39224053 14.2822969,10.0945866 13.6637956,10.8352789 C13.1104988,11.4979635 12.3153526,12.1705463 11.3946092,12.9493772 C11.0799539,13.2154478 10.7233864,13.517096 10.3532898,13.8383326 C10.2555877,13.9231928 10.1300603,13.9699836 10,13.9699836 L10,13.9699836 Z M10,19.8684211 C4.48577883,19.8684211 0,15.4121539 0,9.93421053 C0,4.45626713 4.48577883,0 10,0 C15.5142212,0 20,4.45626713 20,9.93421053 C20,15.4121539 15.5142212,19.8684211 10,19.8684211 Z M10,1.24177632 C5.17501832,1.24177632 1.25,5.14097215 1.25,9.93421053 C1.25,14.7274489 5.17501832,18.6266447 10,18.6266447 C14.8249817,18.6266447 18.75,14.7274489 18.75,9.93421053 C18.75,5.14097215 14.8249817,1.24177632 10,1.24177632 Z" id="Shape"></path>
                    </g>
                </g>
            </g>
        </g>
    </g>
</svg>